<svg width="400" height="500" viewBox="0 0 400 500" xmlns="http://www.w3.org/2000/svg">
  <path
    d="M117.8 84.8C108.6 84.8 98.6 92.5 90.9 104.2C85.5 112.5 83.3 122.9 83.3 133.3C83.3 151.7 91.5 168.3 105.4 180.2C119.3 192.1 138.6 198.8 158.3 198.8H241.7C261.4 198.8 280.7 192.1 294.6 180.2C308.5 168.3 316.7 151.7 316.7 133.3C316.7 122.9 314.5 112.5 309.1 104.2C301.4 92.5 291.4 84.8 282.2 84.8H117.8ZM107.5 106.3C114.7 96.6 125.1 89.2 138.8 89.2H261.2C274.9 89.2 285.3 96.6 292.5 106.3C299.7 116 302.5 128.2 302.5 141.7C302.5 163.7 291.5 183.1 274.9 194.5C258.3 205.9 237.9 212.5 215.8 212.5H184.2C162.1 212.5 141.7 205.9 125.1 194.5C108.5 183.1 97.5 163.7 97.5 141.7C97.5 128.2 100.3 116 107.5 106.3ZM156.3 213.3C156.3 213.3 156.3 213.3 156.3 213.3ZM198.5 242.2C198.5 242.2 198.5 242.2 198.5 242.2ZM201.5 242.2C201.5 242.2 201.5 242.2 201.5 242.2ZM243.7 213.3C243.7 213.3 243.7 213.3 243.7 213.3Z"
    fill="currentColor"
  />

  <path
    d="M175 146.7C175 146.7 175 146.7 175 146.7Z"
    fill="#888"
  />
  <path
    d="M225 146.7C225 146.7 225 146.7 225 146.7Z"
    fill="#888"
  />
</svg>